<?xml version="1.0" encoding="iso-8859-1"?>
<!-- Generator: Adobe Illustrator 19.0.0, SVG Export Plug-In . SVG Version: 6.00 Build 0)  -->
<svg xmlns="http://www.w3.org/2000/svg" xmlns:xlink="http://www.w3.org/1999/xlink" version="1.1" id="Capa_1" x="0px" y="0px" viewBox="0 0 407.552 407.552" style="enable-background:new 0 0 407.552 407.552;" xml:space="preserve" width="512px" height="512px">
<g>
	<g>
		<path d="M268.544,302.08h-63.488c-3.072,0-5.12,2.048-5.12,5.12c0,3.072,2.048,5.12,5.12,5.12h62.976    c3.072,0,5.12-2.048,5.12-5.12C273.664,304.128,271.104,302.08,268.544,302.08z" fill="#FFFFFF"/>
	</g>
</g>
<g>
	<g>
		<path d="M268.544,242.176h-63.488c-3.072,0-5.12,2.048-5.12,5.12c0,3.072,2.048,5.12,5.12,5.12h62.976    c3.072,0,5.12-2.048,5.12-5.12C273.664,244.224,271.104,242.176,268.544,242.176z" fill="#FFFFFF"/>
	</g>
</g>
<g>
	<g>
		<path d="M268.544,182.272h-63.488c-3.072,0-5.12,2.048-5.12,5.12c0,3.072,2.048,5.12,5.12,5.12h62.976    c3.072,0,5.12-2.048,5.12-5.12C273.664,184.832,271.104,182.272,268.544,182.272z" fill="#FFFFFF"/>
	</g>
</g>
<g>
	<g>
		<path d="M268.544,122.88h-63.488c-3.072,0-5.12,2.048-5.12,5.12c0,3.072,2.048,5.12,5.12,5.12h62.976    c3.072,0,5.12-2.048,5.12-5.12C273.664,124.928,271.104,122.88,268.544,122.88z" fill="#FFFFFF"/>
	</g>
</g>
<g>
	<g>
		<path d="M340.736,47.616H267.52v-10.24c0-3.072-2.048-5.12-5.12-5.12h-29.184v-2.56C233.216,13.312,219.904,0,203.52,0    c-16.384,0-29.696,13.312-29.696,29.696v2.56H144.64c-3.072,0-5.12,2.048-5.12,5.12v10.24H66.816c-3.072,0-5.12,2.048-5.12,5.12    v349.696c0,3.072,2.048,5.12,5.12,5.12h273.92c3.072,0,5.12-2.048,5.12-5.12V52.736C345.856,49.664,343.296,47.616,340.736,47.616    z M150.272,42.496h29.184c3.072,0,5.12-2.048,5.12-5.12v-7.68c0-10.752,8.704-19.456,19.456-19.456    c10.752,0,19.456,8.704,19.456,19.456v7.68c0,3.072,2.048,5.12,5.12,5.12h28.672v25.088H150.272V42.496z M106.24,57.856h33.792    v14.848c0,3.072,2.048,5.12,5.12,5.12H262.4c3.072,0,5.12-2.048,5.12-5.12V57.856h33.792V353.28H106.24V57.856z M71.936,397.312    V57.856H96V358.4c0,3.072,2.048,5.12,5.12,5.12h205.312c3.072,0,5.12-2.048,5.12-5.12V57.856h24.064v339.456H71.936z" fill="#FFFFFF"/>
	</g>
</g>
<g>
	<g>
		<circle cx="203.52" cy="28.672" r="6.656" fill="#FFFFFF"/>
	</g>
</g>
<g>
	<g>
		<path d="M153.344,106.496c-11.776,0-21.504,9.728-21.504,21.504s9.728,21.504,21.504,21.504c11.776,0,21.504-9.728,21.504-21.504    S165.12,106.496,153.344,106.496z M153.344,138.752c-6.144,0-11.264-5.12-11.264-11.264c0-6.144,5.12-11.264,11.264-11.264    c6.144,0,11.264,5.12,11.264,11.264C164.608,134.144,159.488,138.752,153.344,138.752z" fill="#FFFFFF"/>
	</g>
</g>
<g>
	<g>
		<path d="M153.344,166.4c-11.776,0-21.504,9.728-21.504,21.504s9.728,21.504,21.504,21.504c11.776,0,21.504-9.728,21.504-21.504    S165.12,166.4,153.344,166.4z M153.344,198.656c-6.144,0-11.264-5.12-11.264-11.264s5.12-11.264,11.264-11.264    c6.144,0,11.264,5.12,11.264,11.264S159.488,198.656,153.344,198.656z" fill="#FFFFFF"/>
	</g>
</g>
<g>
	<g>
		<path d="M153.344,225.792c-11.776,0-21.504,9.728-21.504,21.504c0,11.776,9.728,21.504,21.504,21.504    c11.776,0,21.504-9.728,21.504-21.504C174.848,235.52,165.12,225.792,153.344,225.792z M153.344,258.56    c-6.144,0-11.264-5.12-11.264-11.264c0-6.144,5.12-11.264,11.264-11.264c6.144,0,11.264,5.12,11.264,11.264    C164.608,253.44,159.488,258.56,153.344,258.56z" fill="#FFFFFF"/>
	</g>
</g>
<g>
	<g>
		<path d="M153.344,285.696c-11.776,0-21.504,9.728-21.504,21.504s9.728,21.504,21.504,21.504c11.776,0,21.504-9.728,21.504-21.504    S165.12,285.696,153.344,285.696z M153.344,317.952c-6.144,0-11.264-5.12-11.264-11.264c0-6.144,5.12-11.264,11.264-11.264    c6.144,0,11.264,5.12,11.264,11.264C164.608,313.344,159.488,317.952,153.344,317.952z" fill="#FFFFFF"/>
	</g>
</g>
<g>
</g>
<g>
</g>
<g>
</g>
<g>
</g>
<g>
</g>
<g>
</g>
<g>
</g>
<g>
</g>
<g>
</g>
<g>
</g>
<g>
</g>
<g>
</g>
<g>
</g>
<g>
</g>
<g>
</g>
</svg>
