<?xml version="1.0" encoding="iso-8859-1"?>
<!-- Generator: Adobe Illustrator 19.0.0, SVG Export Plug-In . SVG Version: 6.00 Build 0)  -->
<svg version="1.1" id="Capa_1" xmlns="http://www.w3.org/2000/svg" xmlns:xlink="http://www.w3.org/1999/xlink" x="0px" y="0px"
	 viewBox="0 0 512 512" style="enable-background:new 0 0 512 512;" xml:space="preserve">
<g>
	<g>
		<path d="M256,0C114.848,0,0,114.848,0,256s114.848,256,256,256s256-114.848,256-256S397.152,0,256,0z M256,32
			c89.136,0,166.032,52.448,202.08,128H416H256H96H53.92C89.968,84.448,166.864,32,256,32z M400,192v32
			c0,26.016-17.104,48-37.328,48h-53.328C289.104,272,272,250.016,272,224v-32H400z M240,192v32c0,26.016-17.104,48-37.328,48
			h-53.344C129.104,272,112,250.016,112,224v-32H240z M256,480C132.48,480,32,379.52,32,256c0-22.24,3.36-43.696,9.44-64H80v32
			c0,44.112,31.104,80,69.328,80h53.328c21.552,0,40.608-11.648,53.328-29.52C268.72,292.352,287.776,304,309.328,304h53.328
			c38.24,0,69.344-35.888,69.344-80v-32h38.56c6.08,20.304,9.44,41.76,9.44,64C480,379.52,379.52,480,256,480z"/>
	</g>
</g>
<g>
	<g>
		<path d="M320,336c0,35.296-28.704,64-64,64s-64-28.704-64-64h-32c0,52.944,43.056,96,96,96c52.944,0,96-43.056,96-96H320z"/>
	</g>
</g>
<g>
</g>
<g>
</g>
<g>
</g>
<g>
</g>
<g>
</g>
<g>
</g>
<g>
</g>
<g>
</g>
<g>
</g>
<g>
</g>
<g>
</g>
<g>
</g>
<g>
</g>
<g>
</g>
<g>
</g>
</svg>
